<?xml version="1.0" encoding="utf-8" ?>
<svg baseProfile="tiny" height="100%" version="1.2" width="100%" xmlns="http://www.w3.org/2000/svg" xmlns:ev="http://www.w3.org/2001/xml-events" xmlns:xlink="http://www.w3.org/1999/xlink"><defs /><path d="M 327,546 L 326,547 L 321,547 L 320,548 L 317,548 L 316,549 L 314,549 L 313,550 L 311,550 L 310,551 L 309,551 L 308,552 L 307,552 L 306,553 L 305,553 L 304,554 L 303,554 L 302,555 L 301,555 L 298,558 L 297,558 L 284,571 L 284,572 L 282,574 L 282,575 L 280,577 L 280,578 L 279,579 L 279,580 L 278,581 L 278,582 L 277,583 L 277,584 L 276,585 L 276,587 L 275,588 L 275,591 L 274,592 L 274,594 L 273,595 L 273,600 L 272,601 L 272,615 L 273,616 L 273,620 L 274,621 L 274,624 L 275,625 L 275,628 L 276,629 L 276,631 L 277,632 L 277,633 L 278,634 L 278,636 L 279,637 L 279,638 L 280,639 L 280,640 L 281,641 L 281,642 L 283,644 L 283,645 L 284,646 L 284,647 L 286,649 L 286,650 L 297,661 L 298,661 L 301,664 L 302,664 L 304,666 L 305,666 L 306,667 L 307,667 L 308,668 L 309,668 L 310,669 L 311,669 L 312,670 L 314,670 L 315,671 L 316,671 L 317,672 L 319,672 L 320,673 L 323,673 L 324,674 L 328,674 L 329,675 L 341,675 L 342,674 L 348,674 L 349,673 L 352,673 L 353,672 L 355,672 L 356,671 L 357,671 L 358,670 L 360,670 L 361,669 L 362,669 L 363,668 L 364,668 L 366,666 L 367,666 L 368,665 L 369,665 L 373,661 L 374,661 L 386,649 L 386,648 L 406,628 L 406,627 L 407,626 L 408,626 L 408,625 L 415,618 L 415,617 L 416,616 L 416,602 L 415,601 L 415,600 L 413,598 L 413,597 L 397,581 L 397,580 L 387,570 L 387,569 L 378,560 L 377,560 L 373,556 L 372,556 L 370,554 L 369,554 L 368,553 L 367,553 L 365,551 L 363,551 L 362,550 L 361,550 L 360,549 L 359,549 L 358,548 L 355,548 L 354,547 L 350,547 L 349,546 Z" fill="blue" /><path d="M 669,508 L 668,509 L 665,509 L 662,512 L 662,514 L 661,515 L 661,522 L 660,523 L 660,527 L 659,528 L 659,530 L 656,533 L 655,533 L 654,534 L 653,534 L 652,535 L 650,535 L 649,536 L 648,536 L 647,537 L 645,537 L 644,538 L 643,538 L 642,539 L 639,539 L 637,537 L 636,537 L 629,530 L 628,530 L 626,528 L 625,528 L 624,527 L 619,527 L 618,528 L 617,528 L 601,544 L 601,545 L 599,547 L 599,554 L 600,555 L 600,556 L 602,558 L 602,559 L 610,567 L 610,568 L 611,569 L 610,570 L 610,573 L 609,574 L 609,578 L 608,579 L 608,583 L 607,584 L 607,585 L 605,587 L 603,587 L 602,588 L 595,588 L 594,589 L 590,589 L 589,590 L 586,590 L 585,591 L 583,591 L 581,593 L 581,595 L 580,596 L 580,605 L 581,606 L 581,618 L 580,619 L 580,620 L 581,621 L 581,625 L 584,628 L 585,628 L 586,629 L 590,629 L 591,630 L 599,630 L 600,631 L 604,631 L 607,634 L 607,635 L 608,636 L 608,639 L 609,640 L 609,643 L 610,644 L 610,647 L 611,648 L 611,651 L 610,652 L 610,653 L 601,662 L 601,663 L 600,664 L 600,666 L 599,667 L 600,668 L 600,670 L 601,671 L 601,672 L 613,684 L 613,685 L 617,689 L 618,689 L 619,690 L 620,690 L 621,691 L 623,691 L 624,690 L 626,690 L 638,678 L 639,678 L 640,677 L 641,677 L 642,678 L 644,678 L 645,679 L 648,679 L 649,680 L 651,680 L 652,681 L 654,681 L 658,685 L 658,687 L 659,688 L 659,690 L 660,691 L 660,694 L 661,695 L 661,697 L 662,698 L 662,700 L 663,701 L 663,702 L 666,705 L 667,705 L 668,706 L 695,706 L 696,705 L 697,705 L 698,704 L 698,703 L 699,702 L 699,700 L 700,699 L 700,694 L 701,693 L 701,689 L 702,688 L 702,686 L 703,685 L 703,684 L 706,681 L 709,681 L 710,680 L 712,680 L 713,679 L 715,679 L 716,678 L 717,678 L 718,677 L 720,677 L 721,678 L 722,678 L 733,689 L 734,689 L 735,690 L 737,690 L 738,691 L 739,690 L 741,690 L 752,679 L 753,679 L 758,674 L 758,673 L 760,671 L 760,670 L 761,669 L 761,663 L 752,654 L 752,653 L 751,652 L 751,651 L 750,650 L 750,649 L 751,648 L 751,645 L 752,644 L 752,642 L 753,641 L 753,639 L 754,638 L 754,635 L 755,634 L 755,633 L 757,631 L 758,631 L 759,630 L 765,630 L 766,629 L 774,629 L 775,628 L 776,628 L 777,627 L 778,627 L 779,626 L 779,625 L 780,624 L 780,594 L 779,593 L 779,592 L 778,591 L 777,591 L 776,590 L 770,590 L 769,589 L 760,589 L 759,588 L 758,588 L 755,585 L 755,584 L 754,583 L 754,581 L 753,580 L 753,578 L 752,577 L 752,574 L 751,573 L 751,567 L 754,564 L 754,563 L 757,560 L 758,560 L 761,557 L 761,556 L 762,555 L 762,554 L 763,553 L 763,551 L 762,550 L 762,548 L 753,539 L 753,538 L 745,530 L 745,529 L 744,529 L 742,527 L 737,527 L 736,528 L 735,528 L 726,537 L 725,537 L 723,539 L 719,539 L 718,538 L 717,538 L 716,537 L 714,537 L 713,536 L 712,536 L 711,535 L 709,535 L 708,534 L 707,534 L 706,533 L 705,533 L 704,532 L 704,531 L 703,530 L 703,529 L 702,528 L 702,526 L 701,525 L 701,522 L 700,521 L 700,514 L 699,513 L 699,512 L 698,511 L 698,510 L 697,510 L 696,509 L 673,509 L 672,508 Z" fill="blue" /><path d="M 681,437 L 680,438 L 667,438 L 666,439 L 660,439 L 659,440 L 654,440 L 653,441 L 650,441 L 649,442 L 645,442 L 644,443 L 641,443 L 640,444 L 638,444 L 637,445 L 634,445 L 633,446 L 631,446 L 630,447 L 628,447 L 627,448 L 625,448 L 624,449 L 623,449 L 622,450 L 620,450 L 619,451 L 618,451 L 617,452 L 616,452 L 615,453 L 613,453 L 612,454 L 611,454 L 610,455 L 609,455 L 608,456 L 607,456 L 606,457 L 605,457 L 603,459 L 602,459 L 601,460 L 600,460 L 598,462 L 597,462 L 596,463 L 595,463 L 592,466 L 591,466 L 589,468 L 588,468 L 585,471 L 584,471 L 577,478 L 576,478 L 559,495 L 559,496 L 544,511 L 544,512 L 531,525 L 531,526 L 518,539 L 518,540 L 509,549 L 509,550 L 500,559 L 500,560 L 491,569 L 491,570 L 480,581 L 480,582 L 472,590 L 472,591 L 462,601 L 462,602 L 453,611 L 453,612 L 445,620 L 445,621 L 437,629 L 437,630 L 428,639 L 428,640 L 418,650 L 418,651 L 412,657 L 412,658 L 407,663 L 407,664 L 405,666 L 405,667 L 402,670 L 402,671 L 400,673 L 400,674 L 397,677 L 397,678 L 396,679 L 396,680 L 394,682 L 394,683 L 393,684 L 393,685 L 392,686 L 392,687 L 391,688 L 391,689 L 390,690 L 390,692 L 389,693 L 389,694 L 388,695 L 388,697 L 387,698 L 387,699 L 386,700 L 386,702 L 385,703 L 385,704 L 384,705 L 384,706 L 383,707 L 383,709 L 382,710 L 382,711 L 381,712 L 381,714 L 380,715 L 380,716 L 374,722 L 373,722 L 370,725 L 369,725 L 367,727 L 366,727 L 364,729 L 363,729 L 362,730 L 361,730 L 360,731 L 358,731 L 357,732 L 354,732 L 353,733 L 349,733 L 348,734 L 341,734 L 340,735 L 320,735 L 319,734 L 312,734 L 311,733 L 307,733 L 306,732 L 304,732 L 303,731 L 300,731 L 299,730 L 298,730 L 297,729 L 295,729 L 294,728 L 293,728 L 292,727 L 290,727 L 289,726 L 288,726 L 287,725 L 286,725 L 285,724 L 284,724 L 283,723 L 282,723 L 280,721 L 279,721 L 278,720 L 277,720 L 275,718 L 274,718 L 272,716 L 271,716 L 268,713 L 267,713 L 263,709 L 262,709 L 249,696 L 249,695 L 245,691 L 245,690 L 241,686 L 241,685 L 239,683 L 239,682 L 237,680 L 237,679 L 235,677 L 235,676 L 234,675 L 234,674 L 233,673 L 233,672 L 231,670 L 231,669 L 230,668 L 230,667 L 229,666 L 229,665 L 228,664 L 228,662 L 227,661 L 227,660 L 226,659 L 226,658 L 225,657 L 225,655 L 224,654 L 224,653 L 223,652 L 223,650 L 222,649 L 222,647 L 221,646 L 221,643 L 220,642 L 220,639 L 219,638 L 219,635 L 218,634 L 218,628 L 217,627 L 217,620 L 216,619 L 216,599 L 217,598 L 217,589 L 218,588 L 218,583 L 219,582 L 219,578 L 220,577 L 220,574 L 221,573 L 221,570 L 222,569 L 222,567 L 223,566 L 223,564 L 224,563 L 224,561 L 225,560 L 225,558 L 226,557 L 226,556 L 227,555 L 227,553 L 228,552 L 228,551 L 229,550 L 229,549 L 230,548 L 230,547 L 231,546 L 231,545 L 232,544 L 232,543 L 234,541 L 234,540 L 235,539 L 235,538 L 237,536 L 237,535 L 239,533 L 239,532 L 241,530 L 241,529 L 244,526 L 244,525 L 263,506 L 264,506 L 268,502 L 269,502 L 272,499 L 273,499 L 275,497 L 276,497 L 278,495 L 279,495 L 280,494 L 281,494 L 282,493 L 283,493 L 285,491 L 286,491 L 287,490 L 288,490 L 289,489 L 290,489 L 291,488 L 293,488 L 294,487 L 295,487 L 296,486 L 298,486 L 299,485 L 300,485 L 301,484 L 303,484 L 304,483 L 306,483 L 307,482 L 309,482 L 310,481 L 313,481 L 314,480 L 319,480 L 320,479 L 326,479 L 327,478 L 348,478 L 349,479 L 356,479 L 357,480 L 362,480 L 363,481 L 366,481 L 367,482 L 370,482 L 371,483 L 374,483 L 375,484 L 377,484 L 378,485 L 379,485 L 380,486 L 382,486 L 383,487 L 384,487 L 385,488 L 387,488 L 388,489 L 389,489 L 390,490 L 391,490 L 392,491 L 393,491 L 394,492 L 395,492 L 396,493 L 397,493 L 398,494 L 399,494 L 401,496 L 402,496 L 403,497 L 404,497 L 406,499 L 407,499 L 409,501 L 410,501 L 412,503 L 413,503 L 416,506 L 417,506 L 420,509 L 421,509 L 432,520 L 433,520 L 447,534 L 447,535 L 448,536 L 449,536 L 451,538 L 451,539 L 470,558 L 471,558 L 479,550 L 479,549 L 487,541 L 487,540 L 495,532 L 495,531 L 497,529 L 495,527 L 494,527 L 447,480 L 446,480 L 441,475 L 440,475 L 436,471 L 435,471 L 433,469 L 432,469 L 430,467 L 429,467 L 427,465 L 426,465 L 424,463 L 423,463 L 422,462 L 421,462 L 419,460 L 418,460 L 417,459 L 416,459 L 415,458 L 414,458 L 413,457 L 412,457 L 411,456 L 410,456 L 409,455 L 408,455 L 407,454 L 406,454 L 405,453 L 404,453 L 403,452 L 402,452 L 401,451 L 399,451 L 398,450 L 397,450 L 396,449 L 395,449 L 394,448 L 392,448 L 391,447 L 389,447 L 388,446 L 386,446 L 385,445 L 382,445 L 381,444 L 379,444 L 378,443 L 374,443 L 373,442 L 370,442 L 369,441 L 365,441 L 364,440 L 359,440 L 358,439 L 351,439 L 350,438 L 324,438 L 323,439 L 316,439 L 315,440 L 310,440 L 309,441 L 305,441 L 304,442 L 300,442 L 299,443 L 296,443 L 295,444 L 293,444 L 292,445 L 290,445 L 289,446 L 287,446 L 286,447 L 284,447 L 283,448 L 282,448 L 281,449 L 279,449 L 278,450 L 277,450 L 276,451 L 275,451 L 274,452 L 273,452 L 272,453 L 271,453 L 270,454 L 269,454 L 268,455 L 267,455 L 266,456 L 265,456 L 263,458 L 262,458 L 260,460 L 259,460 L 257,462 L 256,462 L 254,464 L 253,464 L 250,467 L 249,467 L 245,471 L 244,471 L 236,479 L 235,479 L 221,493 L 221,494 L 215,500 L 215,501 L 211,505 L 211,506 L 207,510 L 207,511 L 205,513 L 205,514 L 202,517 L 202,518 L 200,520 L 200,521 L 199,522 L 199,523 L 197,525 L 197,526 L 196,527 L 196,528 L 195,529 L 195,530 L 194,531 L 194,532 L 193,533 L 193,534 L 192,535 L 192,536 L 191,537 L 191,538 L 190,539 L 190,541 L 189,542 L 189,543 L 188,544 L 188,546 L 187,547 L 187,548 L 186,549 L 186,551 L 185,552 L 185,554 L 184,555 L 184,558 L 183,559 L 183,561 L 182,562 L 182,566 L 181,567 L 181,570 L 180,571 L 180,576 L 179,577 L 179,583 L 178,584 L 178,595 L 177,596 L 177,621 L 178,622 L 178,632 L 179,633 L 179,639 L 180,640 L 180,644 L 181,645 L 181,649 L 182,650 L 182,653 L 183,654 L 183,657 L 184,658 L 184,660 L 185,661 L 185,663 L 186,664 L 186,666 L 187,667 L 187,669 L 188,670 L 188,671 L 189,672 L 189,674 L 190,675 L 190,676 L 191,677 L 191,678 L 192,679 L 192,680 L 193,681 L 193,682 L 194,683 L 194,684 L 195,685 L 195,686 L 196,687 L 196,688 L 197,689 L 197,690 L 198,691 L 198,692 L 200,694 L 200,695 L 201,696 L 201,697 L 203,699 L 203,700 L 205,702 L 205,703 L 207,705 L 207,706 L 209,708 L 209,709 L 212,712 L 212,713 L 215,716 L 215,717 L 222,724 L 222,725 L 233,736 L 234,736 L 239,741 L 240,741 L 243,744 L 244,744 L 247,747 L 248,747 L 250,749 L 251,749 L 253,751 L 254,751 L 256,753 L 257,753 L 259,755 L 260,755 L 261,756 L 262,756 L 263,757 L 264,757 L 265,758 L 266,758 L 267,759 L 268,759 L 269,760 L 270,760 L 271,761 L 272,761 L 273,762 L 274,762 L 275,763 L 277,763 L 278,764 L 279,764 L 280,765 L 282,765 L 283,766 L 285,766 L 286,767 L 288,767 L 289,768 L 291,768 L 292,769 L 295,769 L 296,770 L 299,770 L 300,771 L 304,771 L 305,772 L 309,772 L 310,773 L 317,773 L 318,774 L 350,774 L 351,773 L 356,773 L 357,772 L 360,772 L 361,771 L 364,771 L 365,770 L 367,770 L 368,769 L 370,769 L 371,768 L 372,768 L 373,767 L 375,767 L 376,766 L 377,766 L 378,765 L 379,765 L 381,763 L 382,763 L 383,762 L 384,762 L 386,760 L 387,760 L 390,757 L 391,757 L 396,752 L 397,752 L 401,748 L 401,747 L 406,742 L 406,741 L 409,738 L 409,737 L 411,735 L 411,734 L 413,732 L 413,731 L 414,730 L 414,729 L 415,728 L 415,727 L 416,726 L 416,725 L 417,724 L 417,723 L 418,722 L 418,721 L 419,720 L 419,719 L 420,718 L 420,717 L 421,716 L 421,715 L 422,714 L 422,713 L 423,712 L 423,711 L 424,710 L 424,709 L 425,708 L 425,707 L 426,706 L 426,705 L 428,703 L 428,702 L 429,701 L 429,700 L 430,699 L 430,698 L 432,696 L 432,695 L 434,693 L 434,692 L 437,689 L 437,688 L 442,683 L 442,682 L 449,675 L 449,674 L 456,667 L 456,666 L 464,658 L 464,657 L 473,648 L 473,647 L 481,639 L 481,638 L 489,630 L 489,629 L 497,621 L 497,620 L 506,611 L 506,610 L 515,601 L 515,600 L 524,591 L 524,590 L 532,582 L 532,581 L 540,573 L 540,572 L 549,563 L 549,562 L 560,551 L 560,550 L 572,538 L 572,537 L 582,527 L 582,526 L 597,511 L 598,511 L 603,506 L 604,506 L 607,503 L 608,503 L 611,500 L 612,500 L 614,498 L 615,498 L 616,497 L 617,497 L 619,495 L 620,495 L 621,494 L 622,494 L 623,493 L 624,493 L 625,492 L 626,492 L 627,491 L 628,491 L 629,490 L 630,490 L 631,489 L 632,489 L 633,488 L 635,488 L 636,487 L 637,487 L 638,486 L 640,486 L 641,485 L 642,485 L 643,484 L 645,484 L 646,483 L 649,483 L 650,482 L 653,482 L 654,481 L 657,481 L 658,480 L 662,480 L 663,479 L 669,479 L 670,478 L 699,478 L 700,479 L 705,479 L 706,480 L 710,480 L 711,481 L 714,481 L 715,482 L 717,482 L 718,483 L 720,483 L 721,484 L 723,484 L 724,485 L 725,485 L 726,486 L 728,486 L 729,487 L 730,487 L 731,488 L 732,488 L 733,489 L 734,489 L 735,490 L 736,490 L 737,491 L 738,491 L 739,492 L 740,492 L 742,494 L 743,494 L 744,495 L 745,495 L 747,497 L 748,497 L 750,499 L 751,499 L 755,503 L 756,503 L 760,507 L 761,507 L 773,519 L 773,520 L 779,526 L 779,527 L 782,530 L 782,531 L 785,534 L 785,535 L 787,537 L 787,538 L 788,539 L 788,540 L 790,542 L 790,543 L 791,544 L 791,545 L 792,546 L 792,547 L 793,548 L 793,549 L 794,550 L 794,551 L 795,552 L 795,553 L 796,554 L 796,555 L 797,556 L 797,557 L 798,558 L 798,560 L 799,561 L 799,562 L 800,563 L 800,565 L 801,566 L 801,568 L 802,569 L 802,571 L 803,572 L 803,575 L 804,576 L 804,579 L 805,580 L 805,584 L 806,585 L 806,590 L 807,591 L 807,604 L 808,605 L 808,606 L 807,607 L 807,623 L 806,624 L 806,629 L 805,630 L 805,634 L 804,635 L 804,639 L 803,640 L 803,643 L 802,644 L 802,646 L 801,647 L 801,649 L 800,650 L 800,652 L 799,653 L 799,655 L 798,656 L 798,658 L 797,659 L 797,660 L 796,661 L 796,663 L 795,664 L 795,665 L 794,666 L 794,667 L 793,668 L 793,669 L 792,670 L 792,671 L 791,672 L 791,673 L 789,675 L 789,676 L 788,677 L 788,678 L 786,680 L 786,681 L 783,684 L 783,685 L 780,688 L 780,689 L 775,694 L 775,695 L 767,703 L 766,703 L 762,707 L 761,707 L 757,711 L 756,711 L 754,713 L 753,713 L 751,715 L 750,715 L 748,717 L 747,717 L 746,718 L 745,718 L 743,720 L 742,720 L 741,721 L 740,721 L 739,722 L 738,722 L 737,723 L 736,723 L 735,724 L 733,724 L 732,725 L 731,725 L 730,726 L 729,726 L 728,727 L 726,727 L 725,728 L 724,728 L 723,729 L 720,729 L 719,730 L 717,730 L 716,731 L 714,731 L 713,732 L 709,732 L 708,733 L 704,733 L 703,734 L 698,734 L 697,735 L 689,735 L 688,736 L 678,736 L 677,735 L 667,735 L 666,734 L 660,734 L 659,733 L 655,733 L 654,732 L 651,732 L 650,731 L 647,731 L 646,730 L 644,730 L 643,729 L 641,729 L 640,728 L 639,728 L 638,727 L 636,727 L 635,726 L 634,726 L 633,725 L 631,725 L 630,724 L 629,724 L 628,723 L 627,723 L 626,722 L 625,722 L 623,720 L 622,720 L 621,719 L 620,719 L 618,717 L 617,717 L 615,715 L 614,715 L 611,712 L 610,712 L 607,709 L 606,709 L 593,696 L 593,695 L 589,691 L 589,690 L 583,684 L 583,683 L 577,677 L 577,676 L 572,671 L 572,670 L 568,666 L 568,665 L 564,661 L 564,660 L 560,656 L 560,655 L 556,651 L 556,650 L 552,646 L 552,645 L 548,641 L 548,640 L 544,636 L 544,635 L 540,631 L 540,630 L 536,626 L 536,625 L 532,621 L 532,620 L 531,619 L 529,619 L 525,623 L 524,623 L 503,644 L 502,644 L 502,645 L 505,648 L 505,649 L 509,653 L 509,654 L 514,659 L 514,660 L 519,665 L 519,666 L 522,669 L 522,670 L 527,675 L 527,676 L 531,680 L 531,681 L 535,685 L 535,686 L 539,690 L 539,691 L 544,696 L 544,697 L 548,701 L 548,702 L 552,706 L 552,707 L 556,711 L 556,712 L 561,717 L 561,718 L 567,724 L 567,725 L 580,738 L 581,738 L 585,742 L 586,742 L 590,746 L 591,746 L 593,748 L 594,748 L 596,750 L 597,750 L 599,752 L 600,752 L 602,754 L 603,754 L 604,755 L 605,755 L 606,756 L 607,756 L 609,758 L 610,758 L 611,759 L 612,759 L 613,760 L 614,760 L 615,761 L 616,761 L 617,762 L 619,762 L 620,763 L 621,763 L 622,764 L 624,764 L 625,765 L 626,765 L 627,766 L 629,766 L 630,767 L 632,767 L 633,768 L 635,768 L 636,769 L 638,769 L 639,770 L 642,770 L 643,771 L 646,771 L 647,772 L 651,772 L 652,773 L 656,773 L 657,774 L 664,774 L 665,775 L 700,775 L 701,774 L 707,774 L 708,773 L 713,773 L 714,772 L 718,772 L 719,771 L 722,771 L 723,770 L 726,770 L 727,769 L 730,769 L 731,768 L 733,768 L 734,767 L 736,767 L 737,766 L 739,766 L 740,765 L 742,765 L 743,764 L 744,764 L 745,763 L 747,763 L 748,762 L 749,762 L 750,761 L 751,761 L 752,760 L 753,760 L 754,759 L 755,759 L 756,758 L 757,758 L 758,757 L 759,757 L 760,756 L 761,756 L 762,755 L 763,755 L 765,753 L 766,753 L 767,752 L 768,752 L 770,750 L 771,750 L 773,748 L 774,748 L 776,746 L 777,746 L 780,743 L 781,743 L 785,739 L 786,739 L 794,731 L 795,731 L 801,725 L 801,724 L 807,718 L 807,717 L 811,713 L 811,712 L 815,708 L 815,707 L 817,705 L 817,704 L 819,702 L 819,701 L 821,699 L 821,698 L 823,696 L 823,695 L 824,694 L 824,693 L 825,692 L 825,691 L 826,690 L 826,689 L 828,687 L 828,686 L 829,685 L 829,684 L 830,683 L 830,682 L 831,681 L 831,680 L 832,679 L 832,677 L 833,676 L 833,675 L 834,674 L 834,672 L 835,671 L 835,670 L 836,669 L 836,667 L 837,666 L 837,664 L 838,663 L 838,661 L 839,660 L 839,658 L 840,657 L 840,654 L 841,653 L 841,650 L 842,649 L 842,646 L 843,645 L 843,640 L 844,639 L 844,634 L 845,633 L 845,627 L 846,626 L 846,616 L 847,615 L 847,598 L 846,597 L 846,587 L 845,586 L 845,580 L 844,579 L 844,574 L 843,573 L 843,570 L 842,569 L 842,566 L 841,565 L 841,562 L 840,561 L 840,558 L 839,557 L 839,555 L 838,554 L 838,552 L 837,551 L 837,549 L 836,548 L 836,547 L 835,546 L 835,544 L 834,543 L 834,541 L 833,540 L 833,539 L 832,538 L 832,537 L 831,536 L 831,535 L 830,534 L 830,533 L 829,532 L 829,531 L 828,530 L 828,529 L 827,528 L 827,527 L 826,526 L 826,525 L 825,524 L 825,523 L 823,521 L 823,520 L 822,519 L 822,518 L 820,516 L 820,515 L 818,513 L 818,512 L 815,509 L 815,508 L 812,505 L 812,504 L 807,499 L 807,498 L 787,478 L 786,478 L 781,473 L 780,473 L 776,469 L 775,469 L 772,466 L 771,466 L 769,464 L 768,464 L 766,462 L 765,462 L 764,461 L 763,461 L 761,459 L 760,459 L 759,458 L 758,458 L 756,456 L 755,456 L 754,455 L 753,455 L 752,454 L 750,454 L 749,453 L 748,453 L 747,452 L 746,452 L 745,451 L 744,451 L 743,450 L 742,450 L 741,449 L 739,449 L 738,448 L 737,448 L 736,447 L 734,447 L 733,446 L 731,446 L 730,445 L 728,445 L 727,444 L 725,444 L 724,443 L 721,443 L 720,442 L 717,442 L 716,441 L 712,441 L 711,440 L 707,440 L 706,439 L 700,439 L 699,438 L 683,438 L 682,437 Z" fill="blue" /><path d="M 496,205 L 495,206 L 487,206 L 486,207 L 481,207 L 480,208 L 476,208 L 475,209 L 472,209 L 471,210 L 468,210 L 467,211 L 464,211 L 463,212 L 461,212 L 460,213 L 458,213 L 457,214 L 455,214 L 454,215 L 452,215 L 451,216 L 449,216 L 448,217 L 447,217 L 446,218 L 444,218 L 443,219 L 442,219 L 441,220 L 439,220 L 438,221 L 437,221 L 436,222 L 435,222 L 434,223 L 433,223 L 432,224 L 431,224 L 430,225 L 429,225 L 428,226 L 427,226 L 425,228 L 424,228 L 423,229 L 422,229 L 421,230 L 420,230 L 418,232 L 417,232 L 415,234 L 414,234 L 413,235 L 412,235 L 409,238 L 408,238 L 405,241 L 404,241 L 399,246 L 398,246 L 379,265 L 379,266 L 374,271 L 374,272 L 371,275 L 371,276 L 368,279 L 368,280 L 366,282 L 366,283 L 364,285 L 364,286 L 362,288 L 362,289 L 361,290 L 361,291 L 359,293 L 359,294 L 358,295 L 358,296 L 357,297 L 357,298 L 356,299 L 356,300 L 355,301 L 355,302 L 354,303 L 354,305 L 353,306 L 353,307 L 352,308 L 352,309 L 351,310 L 351,311 L 350,312 L 350,313 L 349,314 L 349,316 L 348,317 L 348,318 L 347,319 L 347,321 L 346,322 L 346,324 L 345,325 L 345,327 L 344,328 L 344,331 L 343,332 L 343,333 L 342,334 L 340,334 L 339,333 L 316,333 L 315,334 L 306,334 L 305,335 L 300,335 L 299,336 L 296,336 L 295,337 L 292,337 L 291,338 L 289,338 L 288,339 L 286,339 L 285,340 L 283,340 L 282,341 L 280,341 L 279,342 L 278,342 L 277,343 L 275,343 L 274,344 L 273,344 L 272,345 L 271,345 L 270,346 L 269,346 L 268,347 L 267,347 L 266,348 L 265,348 L 264,349 L 263,349 L 261,351 L 260,351 L 258,353 L 257,353 L 255,355 L 254,355 L 251,358 L 250,358 L 247,361 L 246,361 L 228,379 L 228,380 L 225,383 L 225,384 L 222,387 L 222,388 L 221,389 L 221,390 L 219,392 L 219,393 L 218,394 L 218,395 L 217,396 L 217,397 L 216,398 L 216,399 L 215,400 L 215,401 L 214,402 L 214,403 L 213,404 L 213,405 L 212,406 L 212,408 L 211,409 L 211,410 L 210,411 L 210,412 L 209,413 L 209,415 L 208,416 L 208,418 L 207,419 L 207,421 L 206,422 L 206,424 L 205,425 L 205,427 L 204,428 L 204,431 L 203,432 L 203,437 L 202,438 L 202,448 L 201,449 L 201,451 L 202,452 L 202,462 L 203,463 L 203,468 L 204,469 L 204,473 L 205,474 L 205,477 L 206,477 L 207,476 L 207,475 L 210,472 L 210,471 L 215,466 L 216,466 L 218,464 L 219,464 L 220,463 L 221,463 L 222,462 L 223,462 L 225,460 L 226,460 L 228,458 L 228,457 L 229,456 L 229,454 L 230,453 L 230,448 L 231,447 L 231,442 L 232,441 L 232,437 L 233,436 L 233,433 L 234,432 L 234,430 L 235,429 L 235,428 L 236,427 L 236,425 L 237,424 L 237,423 L 238,422 L 238,420 L 239,419 L 239,418 L 240,417 L 240,416 L 241,415 L 241,414 L 242,413 L 242,412 L 243,411 L 243,410 L 245,408 L 245,407 L 247,405 L 247,404 L 251,400 L 251,399 L 262,388 L 263,388 L 268,383 L 269,383 L 271,381 L 272,381 L 274,379 L 275,379 L 277,377 L 278,377 L 280,375 L 281,375 L 282,374 L 283,374 L 284,373 L 285,373 L 286,372 L 287,372 L 288,371 L 289,371 L 290,370 L 292,370 L 293,369 L 295,369 L 296,368 L 298,368 L 299,367 L 302,367 L 303,366 L 306,366 L 307,365 L 311,365 L 312,364 L 318,364 L 319,363 L 337,363 L 338,364 L 342,364 L 343,365 L 345,365 L 346,366 L 356,366 L 357,365 L 359,365 L 360,364 L 361,364 L 362,363 L 363,363 L 364,362 L 364,361 L 366,359 L 366,357 L 367,356 L 367,355 L 368,354 L 368,352 L 369,351 L 369,350 L 370,349 L 370,347 L 371,346 L 371,343 L 372,342 L 372,340 L 373,339 L 373,337 L 374,336 L 374,335 L 375,334 L 375,332 L 376,331 L 376,329 L 377,328 L 377,326 L 378,325 L 378,324 L 379,323 L 379,321 L 380,320 L 380,319 L 381,318 L 381,317 L 382,316 L 382,315 L 383,314 L 383,313 L 385,311 L 385,310 L 386,309 L 386,308 L 388,306 L 388,305 L 390,303 L 390,302 L 392,300 L 392,299 L 395,296 L 395,295 L 398,292 L 398,291 L 403,286 L 403,285 L 415,273 L 416,273 L 421,268 L 422,268 L 425,265 L 426,265 L 428,263 L 429,263 L 431,261 L 432,261 L 434,259 L 435,259 L 436,258 L 437,258 L 439,256 L 440,256 L 441,255 L 442,255 L 443,254 L 444,254 L 445,253 L 446,253 L 447,252 L 448,252 L 449,251 L 450,251 L 451,250 L 453,250 L 454,249 L 455,249 L 456,248 L 457,248 L 458,247 L 460,247 L 461,246 L 463,246 L 464,245 L 466,245 L 467,244 L 469,244 L 470,243 L 472,243 L 473,242 L 476,242 L 477,241 L 480,241 L 481,240 L 486,240 L 487,239 L 493,239 L 494,238 L 505,238 L 506,237 L 524,237 L 525,238 L 533,238 L 534,239 L 538,239 L 539,240 L 543,240 L 544,241 L 547,241 L 548,242 L 551,242 L 552,243 L 554,243 L 555,244 L 557,244 L 558,245 L 561,245 L 562,246 L 563,246 L 564,247 L 566,247 L 567,248 L 568,248 L 569,249 L 570,249 L 571,250 L 573,250 L 574,251 L 575,251 L 576,252 L 577,252 L 578,253 L 579,253 L 580,254 L 581,254 L 583,256 L 584,256 L 585,257 L 586,257 L 588,259 L 589,259 L 590,260 L 591,260 L 594,263 L 595,263 L 597,265 L 598,265 L 602,269 L 603,269 L 622,288 L 622,289 L 627,294 L 627,295 L 630,298 L 630,299 L 632,301 L 632,302 L 635,305 L 635,306 L 636,307 L 636,308 L 638,310 L 638,311 L 639,312 L 639,313 L 640,314 L 640,315 L 641,316 L 641,317 L 642,318 L 642,319 L 643,320 L 643,321 L 644,322 L 644,323 L 645,324 L 645,326 L 646,327 L 646,329 L 647,330 L 647,331 L 648,332 L 648,334 L 649,335 L 649,337 L 650,338 L 650,340 L 651,341 L 651,343 L 652,344 L 652,346 L 653,347 L 653,350 L 654,351 L 654,354 L 655,355 L 655,360 L 656,361 L 656,363 L 657,364 L 657,366 L 658,367 L 658,368 L 659,369 L 659,370 L 660,371 L 660,372 L 664,376 L 665,376 L 666,377 L 667,377 L 668,378 L 670,378 L 671,379 L 681,379 L 682,378 L 688,378 L 689,379 L 696,379 L 697,380 L 702,380 L 703,381 L 708,381 L 709,382 L 713,382 L 714,383 L 718,383 L 719,384 L 722,384 L 723,385 L 725,385 L 726,386 L 728,386 L 729,387 L 731,387 L 732,388 L 733,388 L 734,389 L 736,389 L 737,390 L 738,390 L 739,391 L 740,391 L 742,393 L 743,393 L 744,394 L 745,394 L 747,396 L 748,396 L 751,399 L 752,399 L 758,405 L 759,405 L 765,411 L 765,412 L 769,416 L 769,417 L 771,419 L 771,420 L 773,422 L 773,423 L 774,424 L 774,425 L 776,427 L 776,429 L 777,430 L 777,431 L 778,432 L 778,433 L 779,434 L 779,435 L 780,436 L 780,438 L 781,439 L 781,441 L 782,442 L 782,444 L 783,445 L 783,447 L 784,448 L 784,450 L 785,451 L 785,453 L 786,454 L 786,455 L 788,457 L 789,457 L 790,458 L 792,458 L 793,459 L 795,459 L 796,460 L 797,460 L 798,461 L 799,461 L 801,463 L 802,463 L 810,471 L 810,472 L 811,473 L 812,473 L 812,470 L 813,469 L 813,449 L 812,448 L 812,442 L 811,441 L 811,438 L 810,437 L 810,434 L 809,433 L 809,430 L 808,429 L 808,427 L 807,426 L 807,424 L 806,423 L 806,422 L 805,421 L 805,420 L 804,419 L 804,418 L 803,417 L 803,416 L 802,415 L 802,414 L 801,413 L 801,412 L 800,411 L 800,410 L 798,408 L 798,407 L 797,406 L 797,405 L 795,403 L 795,402 L 793,400 L 793,399 L 789,395 L 789,394 L 780,385 L 780,384 L 779,383 L 778,383 L 772,377 L 771,377 L 768,374 L 767,374 L 765,372 L 764,372 L 762,370 L 761,370 L 759,368 L 758,368 L 757,367 L 756,367 L 754,365 L 753,365 L 752,364 L 751,364 L 750,363 L 749,363 L 748,362 L 747,362 L 746,361 L 745,361 L 744,360 L 743,360 L 742,359 L 741,359 L 740,358 L 738,358 L 737,357 L 735,357 L 734,356 L 732,356 L 731,355 L 729,355 L 728,354 L 725,354 L 724,353 L 721,353 L 720,352 L 717,352 L 716,351 L 712,351 L 711,350 L 705,350 L 704,349 L 699,349 L 698,348 L 692,348 L 691,347 L 686,347 L 685,346 L 683,346 L 682,345 L 682,341 L 681,340 L 681,336 L 680,335 L 680,332 L 679,331 L 679,329 L 678,328 L 678,326 L 677,325 L 677,323 L 676,322 L 676,320 L 675,319 L 675,318 L 674,317 L 674,315 L 673,314 L 673,313 L 672,312 L 672,311 L 671,310 L 671,308 L 670,307 L 670,306 L 669,305 L 669,304 L 668,303 L 668,302 L 667,301 L 667,300 L 666,299 L 666,298 L 665,297 L 665,296 L 663,294 L 663,293 L 662,292 L 662,291 L 660,289 L 660,288 L 658,286 L 658,285 L 656,283 L 656,282 L 653,279 L 653,278 L 650,275 L 650,274 L 646,270 L 646,269 L 639,262 L 639,261 L 628,250 L 627,250 L 620,243 L 619,243 L 615,239 L 614,239 L 611,236 L 610,236 L 607,233 L 606,233 L 604,231 L 603,231 L 601,229 L 600,229 L 599,228 L 598,228 L 597,227 L 596,227 L 594,225 L 593,225 L 592,224 L 591,224 L 590,223 L 589,223 L 588,222 L 587,222 L 586,221 L 584,221 L 583,220 L 582,220 L 581,219 L 580,219 L 579,218 L 577,218 L 576,217 L 575,217 L 574,216 L 572,216 L 571,215 L 570,215 L 569,214 L 567,214 L 566,213 L 563,213 L 562,212 L 560,212 L 559,211 L 556,211 L 555,210 L 552,210 L 551,209 L 547,209 L 546,208 L 541,208 L 540,207 L 534,207 L 533,206 L 526,206 L 525,205 Z" fill="blue" /></svg>