<?xml version="1.0" standalone="no"?>
<!DOCTYPE svg PUBLIC "-//W3C//DTD SVG 20010904//EN"
 "http://www.w3.org/TR/2001/REC-SVG-20010904/DTD/svg10.dtd">
<svg version="1.0" xmlns="http://www.w3.org/2000/svg"
 width="512.000000pt" height="512.000000pt" viewBox="0 0 512.000000 512.000000"
 preserveAspectRatio="xMidYMid meet">
<metadata>
Created by potrace 1.14, written by Peter Selinger 2001-2017
</metadata>
<g transform="translate(0.000000,512.000000) scale(0.100000,-0.100000)"
fill="#000000" stroke="none">
<path d="M2380 3840 c-19 -19 -20 -33 -20 -320 0 -287 1 -301 20 -320 19 -19
33 -20 320 -20 287 0 301 1 320 20 19 19 20 33 20 320 0 287 -1 301 -20 320
-19 19 -33 20 -320 20 -287 0 -301 -1 -320 -20z"/>
<path d="M1580 3040 c-19 -19 -20 -33 -20 -320 0 -287 1 -301 20 -320 19 -19
33 -20 320 -20 287 0 301 1 320 20 19 19 20 33 20 320 0 287 -1 301 -20 320
-19 19 -33 20 -320 20 -287 0 -301 -1 -320 -20z"/>
<path d="M3180 3040 c-19 -19 -20 -33 -20 -320 0 -287 1 -301 20 -320 19 -19
33 -20 320 -20 287 0 301 1 320 20 19 19 20 33 20 320 0 287 -1 301 -20 320
-19 19 -33 20 -320 20 -287 0 -301 -1 -320 -20z"/>
<path d="M2380 2240 c-19 -19 -20 -33 -20 -320 0 -287 1 -301 20 -320 19 -19
33 -20 320 -20 287 0 301 1 320 20 19 19 20 33 20 320 0 287 -1 301 -20 320
-19 19 -33 20 -320 20 -287 0 -301 -1 -320 -20z"/>
<path d="M1580 1440 c-19 -19 -20 -33 -20 -320 0 -287 1 -301 20 -320 19 -19
33 -20 320 -20 287 0 301 1 320 20 19 19 20 33 20 320 0 287 -1 301 -20 320
-19 19 -33 20 -320 20 -287 0 -301 -1 -320 -20z"/>
<path d="M3180 1440 c-19 -19 -20 -33 -20 -320 0 -287 1 -301 20 -320 19 -19
33 -20 320 -20 287 0 301 1 320 20 19 19 20 33 20 320 0 287 -1 301 -20 320
-19 19 -33 20 -320 20 -287 0 -301 -1 -320 -20z"/>
</g>
</svg>

